# xmcd
#
# Track frame offsets:
# 150
# 14440
# 27652
# 45821
# 58438
# 71550
# 83925
# 98388
# 111912
# 127441
#
# Disc length: 1853 seconds
#
#
# Revision: 0
# Processed by: cddbd v1.4PL0 Copyright (c) Steve Scherf et al.
# Submitted via: FreeRIP 2.35 
#
DISCID=8a073b0a
DTITLE=Various Artist - CLASSIC COUNTRY LOVE SONGS
DYEAR=2001
DGENRE=COUNTRY
TTITLE0=IF LOVIN' YOU IS WRONG (I DON'T WANT TO BE RIGHT)
TTITLE1=I FALL TO PIECES
TTITLE2=I BELIEVE IN YOU
TTITLE3=MAKE THE WORLD GO AWAY
TTITLE4=PLEASE HELP ME, I'M FALLING
TTITLE5=ROOM FULL OF ROSES
TTITLE6=GREEN, GREEN GRASS OF HOME
TTITLE7=I WILL ALWAYS LOVE YOU
TTITLE8=LOVIN' HER WAS EASIER
TTITLE9=I LOVE YOU BECASUE
EXTD=
EXTT0=
EXTT1=
EXTT2=
EXTT3=
EXTT4=
EXTT5=
EXTT6=
EXTT7=
EXTT8=
EXTT9=
PLAYORDER=
